<svg version="1.1" id="Layer_1" xmlns="http://www.w3.org/2000/svg" xmlns:xlink="http://www.w3.org/1999/xlink" x="0px" y="0px"
	 width="100%" viewBox="0 0 500 500" enable-background="new 0 0 500 500" xml:space="preserve">
<path fill="#000000" opacity="1.000000" stroke="none" 
	d="
M229.000000,501.000000 
	C152.666687,501.000000 76.833366,501.000000 1.000041,501.000000 
	C1.000027,334.333405 1.000027,167.666779 1.000014,1.000130 
	C167.666565,1.000087 334.333130,1.000087 500.999756,1.000043 
	C500.999847,167.666519 500.999847,334.333038 500.999939,500.999786 
	C410.500000,501.000000 320.000000,501.000000 229.000000,501.000000 
M341.821411,344.196838 
	C340.865997,344.145020 339.910553,344.093170 338.983368,343.272919 
	C338.653351,342.188141 338.410919,341.066895 337.977142,340.025299 
	C336.596313,336.709595 333.421265,336.043457 331.000153,337.357971 
	C329.115021,338.381470 327.037018,341.663513 327.385681,343.496552 
	C327.781921,345.579773 330.812622,348.629639 332.641846,348.591095 
	C334.797546,348.545654 336.892944,345.639221 339.235138,344.650787 
	C339.737274,345.498993 340.135406,346.434540 340.760590,347.179504 
	C342.847931,349.666809 345.648499,350.081238 347.531982,347.629211 
	C348.587921,346.254547 347.896912,343.537933 348.011444,341.019928 
	C347.877014,341.256073 348.875244,340.229706 348.658661,339.732056 
	C348.203430,338.685913 347.106262,337.177612 346.279846,337.182159 
	C344.289825,337.193054 342.303955,337.965607 340.316376,338.430908 
	C341.235901,340.262268 342.155396,342.093658 342.794708,344.164398 
	C342.794708,344.164398 342.511658,344.400421 341.821411,344.196838 
M360.871643,344.216034 
	C360.103424,344.216034 359.335205,344.216034 358.446960,344.216034 
	C360.537201,348.897095 363.159668,349.933746 366.228058,348.329895 
	C370.905670,345.884888 364.037048,341.858368 367.700043,339.428589 
	C367.754425,339.392548 367.055420,338.011139 366.534943,337.406708 
	C366.274902,337.104706 365.585297,336.962097 365.154877,337.053406 
	C363.182892,337.471741 361.233856,337.998322 359.276581,338.486084 
	C360.209351,340.299072 361.142120,342.112061 361.794708,344.164398 
	C361.794708,344.164398 361.511658,344.400421 360.871643,344.216034 
M263.357361,245.911591 
	C263.357361,245.911591 263.805237,245.778625 264.754242,245.941467 
	C271.515015,245.912979 278.275787,245.884491 285.813202,245.503510 
	C285.881012,243.680527 286.003387,241.857681 286.008423,240.034531 
	C286.084686,212.439804 286.197693,184.844742 286.044495,157.251190 
	C286.037384,155.973022 283.661041,153.680954 282.307587,153.618942 
	C277.058319,153.378403 271.768005,153.738800 266.512909,154.137894 
	C265.292419,154.230606 264.150543,155.357803 262.565674,156.247162 
	C262.276642,156.458832 262.174957,156.738602 262.060059,158.002533 
	C262.039734,186.302094 262.010376,214.601669 262.036896,242.901184 
	C262.037811,243.880966 262.596832,244.860229 263.357361,245.911591 
M246.942993,179.313782 
	C245.062653,178.217056 243.239288,176.312027 241.291290,176.174667 
	C235.374161,175.757477 229.408859,176.023605 223.312775,176.023605 
	C223.501541,177.176758 223.652344,178.098068 223.281876,178.941483 
	C222.869827,179.178452 222.457779,179.415436 221.164749,179.904373 
	C220.808701,180.168945 220.141708,180.432587 220.140915,180.698227 
	C220.077469,201.813690 220.040421,222.929489 220.178848,244.044098 
	C220.182892,244.658035 222.083649,245.259552 224.018021,245.981354 
	C230.683823,245.941559 237.349609,245.901764 244.870224,245.963913 
	C245.575745,244.465454 246.886520,242.970581 246.895401,241.468002 
	C247.016388,221.004471 246.957123,200.539902 246.942993,179.313782 
M204.811081,245.661423 
	C204.873810,236.550720 204.963242,227.440002 204.954437,218.329376 
	C204.953629,217.497925 204.323227,216.667099 204.081146,215.108856 
	C203.459442,214.432739 202.837067,213.172592 202.216125,213.173294 
	C197.417496,213.178650 192.612183,213.325623 187.824142,213.651718 
	C185.892700,213.783279 183.999237,214.472321 182.014618,215.865265 
	C182.009445,224.029129 181.948181,232.193634 182.042084,240.356369 
	C182.063187,242.191101 182.626389,244.019592 183.879044,245.957977 
	C190.569473,245.934097 197.259903,245.910233 204.811081,245.661423 
M301.990936,141.939133 
	C301.993927,161.884109 301.997681,181.829086 301.999695,201.774063 
	C302.001038,215.236923 301.944794,228.700394 302.091095,242.161682 
	C302.104675,243.410477 303.397003,244.645370 305.013062,246.011856 
	C312.011230,245.964325 319.009399,245.916809 326.863403,245.964340 
	C327.567657,244.463379 328.879974,242.964951 328.886230,241.461075 
	C329.007568,212.332413 328.976227,183.203110 328.976227,154.073929 
	C328.976227,149.803314 328.976227,145.532684 328.976227,142.909805 
	C332.415710,140.780060 334.631775,139.407852 336.816254,137.491608 
	C335.722565,136.598083 334.488342,135.830017 333.559174,134.789581 
	C329.229156,129.941086 325.249786,124.743164 320.602966,120.228127 
	C318.011688,117.710350 314.949921,116.426178 311.386688,120.503792 
	C307.016418,125.504959 301.396027,129.396423 296.543915,134.007416 
	C295.494446,135.004715 294.816071,137.152481 295.113190,138.521561 
	C295.291199,139.341904 297.680237,139.713455 299.098633,140.222366 
	C300.001434,140.546280 300.946564,140.752228 301.990936,141.939133 
M123.458923,270.000732 
	C120.416443,269.555450 119.595490,271.363281 118.948822,273.929993 
	C117.045410,281.484894 114.888107,288.975800 112.520615,297.622437 
	C110.077736,289.212616 107.845451,282.006317 105.925774,274.717712 
	C104.962990,271.062225 103.096146,269.878174 99.273178,269.847198 
	C95.096085,269.813293 94.872765,272.657166 94.109879,275.202667 
	C91.902130,282.569275 89.858452,289.985077 87.560356,298.048218 
	C85.450706,289.959381 83.602859,282.552277 81.573158,275.195312 
	C79.989388,269.454681 79.197510,269.121307 72.727219,270.961731 
	C76.363869,283.299316 79.999435,295.633240 83.518700,307.572571 
	C89.512978,309.261322 92.611382,307.258606 93.229111,301.551453 
	C93.333145,300.590332 93.726524,299.656708 94.018372,298.720367 
	C95.937813,292.562439 97.866066,286.407196 100.081818,279.322662 
	C102.623573,287.451782 104.946899,294.293610 106.885590,301.242737 
	C108.963631,308.691315 108.805687,308.735382 116.735489,307.472168 
	C120.158134,295.736206 123.602921,283.931274 127.038460,272.123627 
	C127.209152,271.536957 127.299400,270.926880 127.496887,270.000244 
	C126.245972,270.000244 125.259132,270.000244 123.458923,270.000732 
M335.537445,306.155457 
	C337.857025,303.151306 340.176636,300.147125 342.496216,297.142944 
	C341.992523,296.528259 341.488861,295.913574 340.985168,295.298859 
	C338.521515,296.191528 335.301544,296.400085 333.748718,298.116699 
	C330.323486,301.903320 326.900330,304.056091 321.736633,302.344421 
	C316.498962,300.608246 313.756287,297.022064 312.998810,290.992950 
	C323.062744,290.992950 332.797211,290.992950 342.424683,290.992950 
	C343.649475,282.925934 341.041779,275.294861 336.438141,272.170227 
	C330.038239,267.826477 318.640228,267.856781 313.450836,271.942719 
	C306.483215,277.428772 305.024841,284.326996 305.850006,292.779083 
	C307.374023,308.390228 323.675629,312.690430 335.537445,306.155457 
M283.042572,302.907349 
	C274.815552,303.048340 270.442474,299.165161 269.868317,291.000000 
	C274.033722,291.000000 278.186401,291.000092 282.339081,290.999969 
	C286.666534,290.999847 291.000031,290.861725 295.319183,291.051086 
	C297.898651,291.164154 299.593475,290.370605 299.872070,287.762360 
	C300.580292,281.130981 295.391266,272.102264 289.229431,270.255524 
	C282.126831,268.126770 274.833893,267.463440 268.647034,272.908203 
	C261.805145,278.929443 260.541138,286.842407 262.702454,295.106598 
	C265.719482,306.642761 276.266510,312.173615 287.482056,308.765381 
	C293.095490,307.059540 297.850952,301.197571 297.480316,296.440704 
	C292.502472,295.774323 292.629242,295.906921 289.458984,298.937317 
	C287.857269,300.468384 285.700653,301.418976 283.042572,302.907349 
M167.614502,277.061218 
	C163.394821,268.656219 151.163467,267.135864 143.994110,270.088470 
	C134.648560,273.937317 130.974243,281.366516 132.009048,292.687042 
	C132.677551,300.000183 138.474747,307.461823 145.549789,308.629059 
	C153.823303,309.994019 162.021652,309.563843 167.175156,301.528961 
	C172.177994,293.728973 171.960770,285.771393 167.614502,277.061218 
M417.480469,260.005829 
	C412.356079,258.964111 409.379944,261.502197 406.725708,265.645111 
	C401.253723,274.186188 395.280884,282.404816 389.670624,290.859985 
	C388.200012,293.076355 387.303131,295.673401 385.620728,299.185425 
	C395.522461,299.185425 403.743225,299.185425 412.320038,299.185425 
	C412.320038,302.800079 412.320038,305.878815 412.320038,308.829987 
	C414.663971,308.829987 416.620453,308.829987 419.127533,308.829987 
	C419.127533,305.465546 419.127533,302.252075 419.127533,298.696320 
	C421.772461,298.696320 423.857086,298.696320 426.083893,298.696320 
	C425.973663,296.566101 425.883301,294.820312 425.784393,292.908569 
	C423.369263,292.908569 421.413910,292.908569 419.000000,292.908569 
	C419.000000,289.608765 419.055145,286.487366 418.989136,283.368530 
	C418.824738,275.603271 418.605164,267.839172 417.480469,260.005829 
M214.000000,301.456024 
	C214.000000,298.208649 214.000000,294.961243 214.000000,290.185303 
	C217.362991,293.975769 219.671951,296.699066 222.110794,299.300629 
	C226.493759,303.976044 230.053833,310.354034 239.063599,307.243378 
	C232.989639,300.492859 227.112732,293.961365 221.282333,287.481567 
	C226.523804,281.654907 231.532822,276.086670 236.610229,270.442383 
	C230.827866,268.885651 226.852936,270.707092 223.493423,274.903595 
	C220.944427,278.087646 217.861618,280.844360 215.016357,283.791229 
	C214.627487,283.615326 214.238602,283.439453 213.849731,283.263550 
	C213.849731,272.914185 213.849731,262.564819 213.849731,252.330200 
	C211.274155,252.330200 209.349930,252.330200 207.421707,252.330200 
	C207.421707,271.028900 207.421707,289.398315 207.421707,307.652405 
	C209.778381,307.652405 211.697571,307.652405 214.000000,307.652405 
	C214.000000,305.675537 214.000000,304.039032 214.000000,301.456024 
M366.487061,298.008301 
	C372.459076,292.242828 378.522980,286.517426 380.515167,277.991394 
	C381.964630,271.788086 380.630280,266.275726 375.573639,262.157471 
	C371.773010,259.062164 364.747650,256.883698 356.569397,261.846161 
	C352.049744,264.588593 349.769012,268.953064 350.445953,274.820618 
	C352.543396,274.820618 354.652954,274.820618 356.858307,274.820618 
	C356.793884,269.747101 359.553162,266.416565 363.862885,265.294281 
	C366.119141,264.706726 369.900787,265.623962 371.372223,267.291901 
	C374.332184,270.647095 375.089661,274.971954 372.872192,279.511749 
	C368.720978,288.010498 361.804199,293.995148 354.879028,300.001770 
	C352.204407,302.321655 348.744537,304.161102 350.344116,308.821594 
	C361.076691,308.821594 371.834534,308.821594 382.650635,308.821594 
	C382.650635,307.133179 382.650635,305.632080 382.650635,303.694031 
	C374.996582,303.694031 367.685455,303.694031 360.490295,303.694031 
	C362.435120,301.863281 364.210968,300.191589 366.487061,298.008301 
M191.042542,278.402527 
	C193.908325,277.346802 196.774124,276.291046 199.732513,275.201202 
	C199.732513,273.355713 199.732513,271.425568 199.732513,269.340332 
	C194.056534,268.118011 190.103577,270.853058 186.314194,274.190002 
	C186.031998,272.814545 185.756729,271.472900 185.528610,270.361084 
	C183.189667,270.361084 181.278076,270.361084 179.278091,270.361084 
	C179.278091,282.976440 179.278091,295.232117 179.278091,307.618225 
	C181.594986,307.618225 183.628632,307.618225 186.000259,307.618225 
	C186.000259,301.433472 185.878220,295.618805 186.041641,289.812195 
	C186.157440,285.697662 186.665604,281.596649 191.042542,278.402527 
M253.000000,290.498840 
	C253.000000,283.743591 253.000000,276.988373 253.000000,270.319153 
	C250.293716,270.319153 248.369614,270.319153 246.389343,270.319153 
	C246.389343,283.007874 246.389343,295.378021 246.389343,307.680969 
	C248.706116,307.680969 250.630219,307.680969 253.000000,307.680969 
	C253.000000,302.083221 253.000000,296.790649 253.000000,290.498840 
M153.837677,334.369171 
	C153.446884,333.619110 153.056091,332.869049 152.665283,332.118988 
	C152.114655,332.585724 151.252792,332.952728 151.065979,333.535980 
	C150.137405,336.434906 149.386642,339.390747 148.529068,342.486115 
	C146.966187,338.766693 145.463470,335.190399 143.960739,331.614136 
	C143.484222,331.809753 143.007690,332.005341 142.531174,332.200958 
	C141.466263,335.440155 140.401352,338.679352 139.204620,342.319458 
	C136.524094,338.839417 138.545105,333.627747 132.790833,331.656830 
	C134.593094,337.957367 136.099258,343.222809 137.791260,349.137878 
	C142.828949,346.756531 141.258179,341.668457 143.623459,338.511658 
	C144.621994,341.581726 145.607208,344.610870 147.022461,348.962189 
	C148.621979,347.351990 150.284210,346.400055 150.791748,345.022675 
	C151.973770,341.814880 152.599823,338.402191 153.837677,334.369171 
M294.002197,343.290039 
	C294.167877,347.648376 297.314545,349.191681 300.707001,348.746521 
	C303.930359,348.323547 305.208405,345.431396 305.054108,341.975098 
	C304.894073,338.390808 303.220581,337.027283 299.758850,336.954285 
	C295.838684,336.871704 293.735596,338.336029 294.002197,343.290039 
M167.019638,340.804993 
	C166.837967,343.869873 166.663208,347.064209 170.472641,348.062500 
	C172.021698,348.468445 174.768250,348.679382 175.262756,347.898254 
	C176.636856,345.727753 177.502411,343.028351 177.755630,340.457733 
	C177.855988,339.438751 175.956970,337.468903 174.713440,337.223602 
	C171.856674,336.659943 168.610672,336.276428 167.019638,340.804993 
M276.390503,337.002899 
	C271.843781,337.592987 268.707672,341.124756 270.441315,344.432922 
	C271.475342,346.406097 274.053528,348.380920 276.216949,348.759949 
	C279.402466,349.318024 281.255310,346.629395 281.650604,343.595184 
	C282.083038,340.275848 280.596466,337.904999 276.390503,337.002899 
M197.024933,338.569946 
	C192.823349,336.042542 188.058365,336.444275 187.370377,339.719696 
	C186.912079,341.901611 187.222717,344.909729 188.476776,346.583160 
	C189.542664,348.005493 193.205872,349.197784 194.369522,348.434174 
	C196.180527,347.245728 196.980759,344.368408 197.924744,342.089020 
	C198.249130,341.305725 197.720749,340.169220 197.024933,338.569946 
M217.228699,337.685760 
	C216.885910,339.022766 216.543121,340.359772 216.202026,341.690155 
	C214.710876,339.888031 213.547150,338.481628 212.383423,337.075226 
	C211.059280,338.539825 209.735138,340.004425 208.651428,341.203094 
	C207.705032,339.816986 206.646545,338.266693 205.588058,336.716400 
	C205.169266,336.938171 204.750473,337.159943 204.331680,337.381714 
	C205.394302,340.943970 206.456940,344.506226 207.884705,349.292572 
	C209.457443,347.462891 210.314758,346.654266 210.933273,345.692169 
	C211.535049,344.756134 211.892181,343.662811 212.073883,343.262207 
	C213.513657,344.886261 214.869690,346.415833 216.225708,347.945435 
	C217.134705,346.224121 218.140762,344.545197 218.918488,342.766479 
	C219.434952,341.585327 219.916061,340.243835 219.841660,339.008514 
	C219.802750,338.362732 218.530563,337.791199 217.228699,337.685760 
M165.994919,345.358734 
	C165.737823,338.067932 165.260971,337.501892 158.804337,336.599792 
	C158.035934,334.939209 157.317917,333.387512 156.599899,331.835815 
	C154.070328,340.301086 154.773636,346.510223 157.310104,347.716888 
	C159.496597,345.320160 155.471497,339.888550 162.033325,339.172546 
	C162.368408,341.434296 162.592896,343.657074 163.075348,345.822357 
	C163.244278,346.580566 164.047775,347.197327 164.561508,347.878693 
	C165.030655,347.322693 165.499817,346.766693 165.994919,345.358734 
M245.917725,339.328644 
	C245.350281,336.903473 244.782837,334.478333 244.215393,332.053162 
	C242.769516,332.743988 242.093597,333.585236 242.064011,334.448608 
	C241.939499,338.080994 241.945419,341.721863 242.053009,345.355164 
	C242.077774,346.191437 242.693924,347.010162 243.037933,347.836975 
	C243.920380,347.186310 244.802826,346.535645 245.605118,345.944061 
	C247.263611,346.671814 249.167175,347.507111 251.070740,348.342377 
	C251.254700,348.019440 251.438675,347.696472 251.622650,347.373505 
	C250.154510,345.730042 248.686356,344.086548 247.254822,342.484039 
	C248.732285,340.780945 249.962677,339.362640 251.193069,337.944336 
	C250.899048,337.572418 250.605042,337.200470 250.311020,336.828552 
	C249.048508,337.532166 247.785980,338.235809 245.917725,339.328644 
M221.094116,344.058197 
	C222.400925,347.488434 224.596558,349.780090 228.522217,348.662292 
	C231.728119,347.749420 233.558411,345.224640 232.797913,341.920776 
	C232.046844,338.657959 229.960953,336.696381 226.029266,336.913330 
	C221.599747,337.157776 221.158661,339.946381 221.094116,344.058197 
M268.581757,339.146606 
	C265.296051,338.194427 262.010315,337.242249 258.553497,336.240479 
	C257.439148,345.689514 257.584656,346.441345 260.130554,347.608063 
	C261.066986,344.686432 262.010742,341.742004 262.954498,338.797607 
	C263.642334,338.899872 264.330200,339.002136 265.018066,339.104431 
	C265.684692,342.118622 266.351318,345.132812 267.017944,348.146973 
	C267.644562,348.011475 268.271149,347.875946 268.897766,347.740417 
	C268.897766,345.153839 268.897766,342.567291 268.581757,339.146606 
M251.824158,261.568909 
	C254.902100,257.872742 254.938766,253.953262 251.690613,253.166946 
	C249.873199,252.726974 247.128220,252.940750 245.929886,254.064056 
	C244.850220,255.076111 244.447906,258.410889 245.302200,259.490723 
	C246.431961,260.918793 249.076950,261.148102 251.824158,261.568909 
M290.122345,345.578552 
	C291.133636,342.929901 292.144958,340.281250 293.156250,337.632568 
	C292.553833,337.313141 291.951385,336.993713 291.348938,336.674286 
	C290.062561,338.896759 288.776215,341.119263 287.748444,342.894958 
	C286.282166,340.816254 284.844543,338.778168 283.406921,336.740051 
	C282.958282,337.063568 282.509613,337.387085 282.060944,337.710571 
	C283.065125,340.445679 283.951263,343.231812 285.105469,345.902069 
	C286.349487,348.780212 288.081879,348.663300 290.122345,345.578552 
M352.701630,347.731415 
	C354.368866,347.731415 356.036102,347.731415 358.536560,347.731415 
	C353.935455,344.250946 353.959534,340.863434 355.548920,339.811218 
	C354.953033,337.715942 354.357147,335.620697 353.565277,332.836365 
	C352.060547,335.399963 350.475037,336.866943 350.519745,338.282410 
	C350.612579,341.220337 351.570557,344.130920 352.701630,347.731415 
M239.923096,339.478973 
	C240.251816,336.576569 239.623123,336.385925 234.716370,337.674286 
	C234.716370,341.182953 234.716370,344.564972 234.716370,347.946991 
	C235.242081,347.983002 235.767807,348.018982 236.293518,348.054993 
	C236.529022,346.812164 236.598465,345.506195 237.041122,344.342102 
	C237.624512,342.807922 238.500961,341.385162 239.923096,339.478973 
M179.003677,345.192383 
	C179.477570,346.087708 179.951447,346.983063 180.425339,347.878387 
	C180.906097,347.525513 181.651489,347.270874 181.824829,346.803894 
	C182.985443,343.677032 184.024246,340.504974 185.108093,337.331421 
	C183.497986,337.331421 181.462677,337.331421 179.000504,337.331421 
	C179.000504,339.711823 179.000504,342.009613 179.003677,345.192383 
M306.011719,339.069092 
	C306.718018,341.966736 304.457489,345.639069 307.549164,348.113647 
	C309.369080,344.146454 310.906067,340.795990 312.740326,336.797516 
	C310.363495,337.311371 308.217499,337.775330 306.011719,339.069092 
M320.000793,340.654968 
	C320.280731,343.117645 320.560638,345.580322 320.840576,348.042999 
	C321.177429,347.864563 321.514282,347.686127 321.851135,347.507690 
	C323.294983,344.179504 324.738831,340.851318 326.253387,337.360168 
	C324.264801,337.890320 320.780121,334.414032 320.000793,340.654968 
z"/>
<path fill="#59910F" opacity="1.000000" stroke="none" 
	d="
M326.007568,245.869293 
	C319.009399,245.916809 312.011230,245.964325 304.602478,245.493011 
	C304.197998,211.535629 304.204956,178.097061 304.206879,144.658508 
	C304.206940,143.495804 304.268341,142.309250 304.029144,141.192032 
	C303.985321,140.987228 302.625214,141.064163 301.872711,141.011063 
	C300.946564,140.752228 300.001434,140.546280 299.098633,140.222366 
	C297.680237,139.713455 295.291199,139.341904 295.113190,138.521561 
	C294.816071,137.152481 295.494446,135.004715 296.543915,134.007416 
	C301.396027,129.396423 307.016418,125.504959 311.386688,120.503792 
	C314.949921,116.426178 318.011688,117.710350 320.602966,120.228127 
	C325.249786,124.743164 329.229156,129.941086 333.559174,134.789581 
	C334.488342,135.830017 335.722565,136.598083 336.420013,137.752106 
	C334.730469,138.254456 333.395905,138.833466 332.150848,138.681122 
	C326.010651,137.929703 325.870972,141.494339 325.894531,146.198807 
	C326.060852,179.421661 325.997589,212.645660 326.007568,245.869293 
z"/>
<path fill="#578F0B" opacity="1.000000" stroke="none" 
	d="
M285.036560,245.856003 
	C278.275787,245.884491 271.515015,245.912979 264.213074,245.693085 
	C263.551941,245.225037 263.377747,245.063965 263.113831,244.496521 
	C263.070892,216.790207 263.078003,189.548813 263.022064,162.307556 
	C263.018494,160.566666 262.525787,158.826797 262.260620,157.086456 
	C262.174957,156.738602 262.276642,156.458832 263.239502,156.149109 
	C269.222107,156.017105 274.548645,156.237503 279.834106,155.869110 
	C284.099670,155.571808 285.085358,157.197510 285.065338,161.236465 
	C284.925537,189.442337 285.018280,217.649353 285.036560,245.856003 
z"/>
<path fill="#57900C" opacity="1.000000" stroke="none" 
	d="
M244.015411,245.861954 
	C237.349609,245.901764 230.683823,245.941559 223.582214,245.467484 
	C223.145782,224.886887 223.171646,204.820068 223.096893,184.753616 
	C223.090561,183.051926 222.412003,181.352753 222.045731,179.652405 
	C222.457779,179.415436 222.869827,179.178452 224.006744,179.040771 
	C231.120819,179.629547 237.696991,176.586288 243.936829,180.614319 
	C243.972092,202.669327 243.993744,224.265640 244.015411,245.861954 
z"/>
<path fill="#568F09" opacity="1.000000" stroke="none" 
	d="
M123.865608,270.000488 
	C125.259132,270.000244 126.245972,270.000244 127.496887,270.000244 
	C127.299400,270.926880 127.209152,271.536957 127.038460,272.123627 
	C123.602921,283.931274 120.158134,295.736206 116.735489,307.472168 
	C108.805687,308.735382 108.963631,308.691315 106.885590,301.242737 
	C104.946899,294.293610 102.623573,287.451782 100.081818,279.322662 
	C97.866066,286.407196 95.937813,292.562439 94.018372,298.720367 
	C93.726524,299.656708 93.333145,300.590332 93.229111,301.551453 
	C92.611382,307.258606 89.512978,309.261322 83.518700,307.572571 
	C79.999435,295.633240 76.363869,283.299316 72.727219,270.961731 
	C79.197510,269.121307 79.989388,269.454681 81.573158,275.195312 
	C83.602859,282.552277 85.450706,289.959381 87.560356,298.048218 
	C89.858452,289.985077 91.902130,282.569275 94.109879,275.202667 
	C94.872765,272.657166 95.096085,269.813293 99.273178,269.847198 
	C103.096146,269.878174 104.962990,271.062225 105.925774,274.717712 
	C107.845451,282.006317 110.077736,289.212616 112.520615,297.622437 
	C114.888107,288.975800 117.045410,281.484894 118.948822,273.929993 
	C119.595490,271.363281 120.416443,269.555450 123.865608,270.000488 
z"/>
<path fill="#568F09" opacity="1.000000" stroke="none" 
	d="
M335.232727,306.389771 
	C323.675629,312.690430 307.374023,308.390228 305.850006,292.779083 
	C305.024841,284.326996 306.483215,277.428772 313.450836,271.942719 
	C318.640228,267.856781 330.038239,267.826477 336.438141,272.170227 
	C341.041779,275.294861 343.649475,282.925934 342.424683,290.992950 
	C332.797211,290.992950 323.062744,290.992950 312.998810,290.992950 
	C313.756287,297.022064 316.498962,300.608246 321.736633,302.344421 
	C326.900330,304.056091 330.323486,301.903320 333.748718,298.116699 
	C335.301544,296.400085 338.521515,296.191528 340.985168,295.298859 
	C341.488861,295.913574 341.992523,296.528259 342.496216,297.142944 
	C340.176636,300.147125 337.857025,303.151306 335.232727,306.389771 
M314.441681,281.078613 
	C314.016998,282.239807 313.592285,283.401001 313.007507,285.000000 
	C317.197083,285.000000 320.838776,285.000000 324.480469,285.000000 
	C328.079895,285.000000 331.679291,285.000000 335.245087,285.000000 
	C335.218689,278.598541 331.117584,276.028534 326.175262,275.295044 
	C321.713440,274.632904 317.298553,275.801270 314.441681,281.078613 
z"/>
<path fill="#568F09" opacity="1.000000" stroke="none" 
	d="
M283.418762,302.769684 
	C285.700653,301.418976 287.857269,300.468384 289.458984,298.937317 
	C292.629242,295.906921 292.502472,295.774323 297.480316,296.440704 
	C297.850952,301.197571 293.095490,307.059540 287.482056,308.765381 
	C276.266510,312.173615 265.719482,306.642761 262.702454,295.106598 
	C260.541138,286.842407 261.805145,278.929443 268.647034,272.908203 
	C274.833893,267.463440 282.126831,268.126770 289.229431,270.255524 
	C295.391266,272.102264 300.580292,281.130981 299.872070,287.762360 
	C299.593475,290.370605 297.898651,291.164154 295.319183,291.051086 
	C291.000031,290.861725 286.666534,290.999847 282.339081,290.999969 
	C278.186401,291.000092 274.033722,291.000000 269.868317,291.000000 
	C270.442474,299.165161 274.815552,303.048340 283.418762,302.769684 
M278.570740,285.000000 
	C282.958588,285.000000 287.346405,285.000000 291.849304,285.000000 
	C290.606537,278.457550 286.531586,274.962555 280.923279,275.003784 
	C275.290253,275.045197 271.151825,278.721008 270.263855,285.000000 
	C272.762848,285.000000 275.186493,285.000000 278.570740,285.000000 
z"/>
<path fill="#568F09" opacity="1.000000" stroke="none" 
	d="
M167.862823,277.354736 
	C171.960770,285.771393 172.177994,293.728973 167.175156,301.528961 
	C162.021652,309.563843 153.823303,309.994019 145.549789,308.629059 
	C138.474747,307.461823 132.677551,300.000183 132.009048,292.687042 
	C130.974243,281.366516 134.648560,273.937317 143.994110,270.088470 
	C151.163467,267.135864 163.394821,268.656219 167.862823,277.354736 
M143.698883,278.144958 
	C139.275055,282.307098 139.609985,287.747406 140.081802,293.002228 
	C140.780151,300.779663 150.555023,305.622192 156.925095,301.423492 
	C161.991867,298.083832 163.412643,293.074921 163.072693,287.161224 
	C162.784790,282.153015 160.279312,278.610596 156.319351,276.309479 
	C152.242554,273.940491 148.051483,274.783722 143.698883,278.144958 
z"/>
<path fill="#FFFFFF" opacity="1.000000" stroke="none" 
	d="
M417.944092,260.040222 
	C418.605164,267.839172 418.824738,275.603271 418.989136,283.368530 
	C419.055145,286.487366 419.000000,289.608765 419.000000,292.908569 
	C421.413910,292.908569 423.369263,292.908569 425.784393,292.908569 
	C425.883301,294.820312 425.973663,296.566101 426.083893,298.696320 
	C423.857086,298.696320 421.772461,298.696320 419.127533,298.696320 
	C419.127533,302.252075 419.127533,305.465546 419.127533,308.829987 
	C416.620453,308.829987 414.663971,308.829987 412.320038,308.829987 
	C412.320038,305.878815 412.320038,302.800079 412.320038,299.185425 
	C403.743225,299.185425 395.522461,299.185425 385.620728,299.185425 
	C387.303131,295.673401 388.200012,293.076355 389.670624,290.859985 
	C395.280884,282.404816 401.253723,274.186188 406.725708,265.645111 
	C409.379944,261.502197 412.356079,258.964111 417.944092,260.040222 
M403.583496,293.000000 
	C406.332214,293.000000 409.080963,293.000000 411.738647,293.000000 
	C411.738647,285.079010 411.738647,277.760529 411.738647,269.383362 
	C406.031891,277.597504 400.911530,284.967621 395.331055,293.000000 
	C398.403992,293.000000 400.519043,293.000000 403.583496,293.000000 
z"/>
<path fill="#568F09" opacity="1.000000" stroke="none" 
	d="
M214.000000,301.929260 
	C214.000000,304.039032 214.000000,305.675537 214.000000,307.652405 
	C211.697571,307.652405 209.778381,307.652405 207.421707,307.652405 
	C207.421707,289.398315 207.421707,271.028900 207.421707,252.330200 
	C209.349930,252.330200 211.274155,252.330200 213.849731,252.330200 
	C213.849731,262.564819 213.849731,272.914185 213.849731,283.263550 
	C214.238602,283.439453 214.627487,283.615326 215.016357,283.791229 
	C217.861618,280.844360 220.944427,278.087646 223.493423,274.903595 
	C226.852936,270.707092 230.827866,268.885651 236.610229,270.442383 
	C231.532822,276.086670 226.523804,281.654907 221.282333,287.481567 
	C227.112732,293.961365 232.989639,300.492859 239.063599,307.243378 
	C230.053833,310.354034 226.493759,303.976044 222.110794,299.300629 
	C219.671951,296.699066 217.362991,293.975769 214.000000,290.185303 
	C214.000000,294.961243 214.000000,298.208649 214.000000,301.929260 
z"/>
<path fill="#58910D" opacity="1.000000" stroke="none" 
	d="
M182.088486,214.907669 
	C183.999237,214.472321 185.892700,213.783279 187.824142,213.651718 
	C192.612183,213.325623 197.417496,213.178650 202.216125,213.173294 
	C202.837067,213.172592 203.459442,214.432739 203.974762,215.948761 
	C203.895706,226.487885 203.923019,236.187119 203.950317,245.886353 
	C197.259903,245.910233 190.569473,245.934097 183.427856,245.446716 
	C182.981293,238.139389 183.079697,231.341522 182.949509,224.548065 
	C182.887848,221.330276 182.389160,218.120865 182.088486,214.907669 
z"/>
<path fill="#FFFFFF" opacity="1.000000" stroke="none" 
	d="
M366.236938,298.264099 
	C364.210968,300.191589 362.435120,301.863281 360.490295,303.694031 
	C367.685455,303.694031 374.996582,303.694031 382.650635,303.694031 
	C382.650635,305.632080 382.650635,307.133179 382.650635,308.821594 
	C371.834534,308.821594 361.076691,308.821594 350.344116,308.821594 
	C348.744537,304.161102 352.204407,302.321655 354.879028,300.001770 
	C361.804199,293.995148 368.720978,288.010498 372.872192,279.511749 
	C375.089661,274.971954 374.332184,270.647095 371.372223,267.291901 
	C369.900787,265.623962 366.119141,264.706726 363.862885,265.294281 
	C359.553162,266.416565 356.793884,269.747101 356.858307,274.820618 
	C354.652954,274.820618 352.543396,274.820618 350.445953,274.820618 
	C349.769012,268.953064 352.049744,264.588593 356.569397,261.846161 
	C364.747650,256.883698 371.773010,259.062164 375.573639,262.157471 
	C380.630280,266.275726 381.964630,271.788086 380.515167,277.991394 
	C378.522980,286.517426 372.459076,292.242828 366.236938,298.264099 
z"/>
<path fill="#568F09" opacity="1.000000" stroke="none" 
	d="
M190.729767,278.636017 
	C186.665604,281.596649 186.157440,285.697662 186.041641,289.812195 
	C185.878220,295.618805 186.000259,301.433472 186.000259,307.618225 
	C183.628632,307.618225 181.594986,307.618225 179.278091,307.618225 
	C179.278091,295.232117 179.278091,282.976440 179.278091,270.361084 
	C181.278076,270.361084 183.189667,270.361084 185.528610,270.361084 
	C185.756729,271.472900 186.031998,272.814545 186.314194,274.190002 
	C190.103577,270.853058 194.056534,268.118011 199.732513,269.340332 
	C199.732513,271.425568 199.732513,273.355713 199.732513,275.201202 
	C196.774124,276.291046 193.908325,277.346802 190.729767,278.636017 
z"/>
<path fill="#6F9E38" opacity="1.000000" stroke="none" 
	d="
M326.435486,245.916809 
	C325.997589,212.645660 326.060852,179.421661 325.894531,146.198807 
	C325.870972,141.494339 326.010651,137.929703 332.150848,138.681122 
	C333.395905,138.833466 334.730469,138.254456 336.435822,138.024139 
	C334.631775,139.407852 332.415710,140.780060 328.976227,142.909805 
	C328.976227,145.532684 328.976227,149.803314 328.976227,154.073929 
	C328.976227,183.203110 329.007568,212.332413 328.886230,241.461075 
	C328.879974,242.964951 327.567657,244.463379 326.435486,245.916809 
z"/>
<path fill="#568F09" opacity="1.000000" stroke="none" 
	d="
M253.000000,290.998474 
	C253.000000,296.790649 253.000000,302.083221 253.000000,307.680969 
	C250.630219,307.680969 248.706116,307.680969 246.389343,307.680969 
	C246.389343,295.378021 246.389343,283.007874 246.389343,270.319153 
	C248.369614,270.319153 250.293716,270.319153 253.000000,270.319153 
	C253.000000,276.988373 253.000000,283.743591 253.000000,290.998474 
z"/>
<path fill="#FFFFFF" opacity="1.000000" stroke="none" 
	d="
M301.931824,141.475098 
	C302.625214,141.064163 303.985321,140.987228 304.029144,141.192032 
	C304.268341,142.309250 304.206940,143.495804 304.206879,144.658508 
	C304.204956,178.097061 304.197998,211.535629 304.143707,245.430450 
	C303.397003,244.645370 302.104675,243.410477 302.091095,242.161682 
	C301.944794,228.700394 302.001038,215.236923 301.999695,201.774063 
	C301.997681,181.829086 301.993927,161.884109 301.931824,141.475098 
z"/>
<path fill="#6B9D34" opacity="1.000000" stroke="none" 
	d="
M244.442810,245.912933 
	C243.993744,224.265640 243.972092,202.669327 244.315659,180.651520 
	C245.434692,180.178543 246.188492,180.127060 246.942307,180.075577 
	C246.957123,200.539902 247.016388,221.004471 246.895401,241.468002 
	C246.886520,242.970581 245.575745,244.465454 244.442810,245.912933 
z"/>
<path fill="#A9F4A1" opacity="1.000000" stroke="none" 
	d="
M221.605240,179.778381 
	C222.412003,181.352753 223.090561,183.051926 223.096893,184.753616 
	C223.171646,204.820068 223.145782,224.886887 223.123230,245.410233 
	C222.083649,245.259552 220.182892,244.658035 220.178848,244.044098 
	C220.040421,222.929489 220.077469,201.813690 220.140915,180.698227 
	C220.141708,180.432587 220.808701,180.168945 221.605240,179.778381 
z"/>
<path fill="#568F09" opacity="1.000000" stroke="none" 
	d="
M153.644409,334.720856 
	C152.599823,338.402191 151.973770,341.814880 150.791748,345.022675 
	C150.284210,346.400055 148.621979,347.351990 147.022461,348.962189 
	C145.607208,344.610870 144.621994,341.581726 143.623459,338.511658 
	C141.258179,341.668457 142.828949,346.756531 137.791260,349.137878 
	C136.099258,343.222809 134.593094,337.957367 132.790833,331.656830 
	C138.545105,333.627747 136.524094,338.839417 139.204620,342.319458 
	C140.401352,338.679352 141.466263,335.440155 142.531174,332.200958 
	C143.007690,332.005341 143.484222,331.809753 143.960739,331.614136 
	C145.463470,335.190399 146.966187,338.766693 148.529068,342.486115 
	C149.386642,339.390747 150.137405,336.434906 151.065979,333.535980 
	C151.252792,332.952728 152.114655,332.585724 152.665283,332.118988 
	C153.056091,332.869049 153.446884,333.619110 153.644409,334.720856 
z"/>
<path fill="#87AE50" opacity="1.000000" stroke="none" 
	d="
M285.424866,245.679749 
	C285.018280,217.649353 284.925537,189.442337 285.065338,161.236465 
	C285.085358,157.197510 284.099670,155.571808 279.834106,155.869110 
	C274.548645,156.237503 269.222107,156.017105 263.442902,156.030029 
	C264.150543,155.357803 265.292419,154.230606 266.512909,154.137894 
	C271.768005,153.738800 277.058319,153.378403 282.307587,153.618942 
	C283.661041,153.680954 286.037384,155.973022 286.044495,157.251190 
	C286.197693,184.844742 286.084686,212.439804 286.008423,240.034531 
	C286.003387,241.857681 285.881012,243.680527 285.424866,245.679749 
z"/>
<path fill="#568F09" opacity="1.000000" stroke="none" 
	d="
M339.014465,343.973236 
	C336.892944,345.639221 334.797546,348.545654 332.641846,348.591095 
	C330.812622,348.629639 327.781921,345.579773 327.385681,343.496552 
	C327.037018,341.663513 329.115021,338.381470 331.000153,337.357971 
	C333.421265,336.043457 336.596313,336.709595 337.977142,340.025299 
	C338.410919,341.066895 338.653351,342.188141 338.985565,343.641113 
	C338.987762,344.009277 339.014465,343.973236 339.014465,343.973236 
z"/>
<path fill="#568F09" opacity="1.000000" stroke="none" 
	d="
M294.001465,342.874634 
	C293.735596,338.336029 295.838684,336.871704 299.758850,336.954285 
	C303.220581,337.027283 304.894073,338.390808 305.054108,341.975098 
	C305.208405,345.431396 303.930359,348.323547 300.707001,348.746521 
	C297.314545,349.191681 294.167877,347.648376 294.001465,342.874634 
z"/>
<path fill="#568F09" opacity="1.000000" stroke="none" 
	d="
M167.060379,340.390656 
	C168.610672,336.276428 171.856674,336.659943 174.713440,337.223602 
	C175.956970,337.468903 177.855988,339.438751 177.755630,340.457733 
	C177.502411,343.028351 176.636856,345.727753 175.262756,347.898254 
	C174.768250,348.679382 172.021698,348.468445 170.472641,348.062500 
	C166.663208,347.064209 166.837967,343.869873 167.060379,340.390656 
z"/>
<path fill="#568F09" opacity="1.000000" stroke="none" 
	d="
M276.788147,337.009613 
	C280.596466,337.904999 282.083038,340.275848 281.650604,343.595184 
	C281.255310,346.629395 279.402466,349.318024 276.216949,348.759949 
	C274.053528,348.380920 271.475342,346.406097 270.441315,344.432922 
	C268.707672,341.124756 271.843781,337.592987 276.788147,337.009613 
z"/>
<path fill="#568F09" opacity="1.000000" stroke="none" 
	d="
M197.303436,338.882019 
	C197.720749,340.169220 198.249130,341.305725 197.924744,342.089020 
	C196.980759,344.368408 196.180527,347.245728 194.369522,348.434174 
	C193.205872,349.197784 189.542664,348.005493 188.476776,346.583160 
	C187.222717,344.909729 186.912079,341.901611 187.370377,339.719696 
	C188.058365,336.444275 192.823349,336.042542 197.303436,338.882019 
z"/>
<path fill="#568F09" opacity="1.000000" stroke="none" 
	d="
M217.522034,337.435913 
	C218.530563,337.791199 219.802750,338.362732 219.841660,339.008514 
	C219.916061,340.243835 219.434952,341.585327 218.918488,342.766479 
	C218.140762,344.545197 217.134705,346.224121 216.225708,347.945435 
	C214.869690,346.415833 213.513657,344.886261 212.073883,343.262207 
	C211.892181,343.662811 211.535049,344.756134 210.933273,345.692169 
	C210.314758,346.654266 209.457443,347.462891 207.884705,349.292572 
	C206.456940,344.506226 205.394302,340.943970 204.331680,337.381714 
	C204.750473,337.159943 205.169266,336.938171 205.588058,336.716400 
	C206.646545,338.266693 207.705032,339.816986 208.651428,341.203094 
	C209.735138,340.004425 211.059280,338.539825 212.383423,337.075226 
	C213.547150,338.481628 214.710876,339.888031 216.202026,341.690155 
	C216.543121,340.359772 216.885910,339.022766 217.522034,337.435913 
z"/>
<path fill="#568F09" opacity="1.000000" stroke="none" 
	d="
M165.981934,345.784729 
	C165.499817,346.766693 165.030655,347.322693 164.561508,347.878693 
	C164.047775,347.197327 163.244278,346.580566 163.075348,345.822357 
	C162.592896,343.657074 162.368408,341.434296 162.033325,339.172546 
	C155.471497,339.888550 159.496597,345.320160 157.309891,347.716797 
	C154.773636,346.510223 154.070328,340.301086 156.599899,331.835815 
	C157.317917,333.387512 158.035934,334.939209 158.804337,336.599792 
	C165.260971,337.501892 165.737823,338.067932 165.981934,345.784729 
z"/>
<path fill="#FEFEFE" opacity="1.000000" stroke="none" 
	d="
M262.160339,157.544495 
	C262.525787,158.826797 263.018494,160.566666 263.022064,162.307556 
	C263.078003,189.548813 263.070892,216.790207 263.013123,244.705322 
	C262.947968,245.379089 262.895721,245.839752 262.895721,245.839752 
	C262.596832,244.860229 262.037811,243.880966 262.036896,242.901184 
	C262.010376,214.601669 262.039734,186.302094 262.160339,157.544495 
z"/>
<path fill="#568F09" opacity="1.000000" stroke="none" 
	d="
M246.220596,339.134033 
	C247.785980,338.235809 249.048508,337.532166 250.311020,336.828552 
	C250.605042,337.200470 250.899048,337.572418 251.193069,337.944336 
	C249.962677,339.362640 248.732285,340.780945 247.254822,342.484039 
	C248.686356,344.086548 250.154510,345.730042 251.622650,347.373505 
	C251.438675,347.696472 251.254700,348.019440 251.070740,348.342377 
	C249.167175,347.507111 247.263611,346.671814 245.605118,345.944061 
	C244.802826,346.535645 243.920380,347.186310 243.037933,347.836975 
	C242.693924,347.010162 242.077774,346.191437 242.053009,345.355164 
	C241.945419,341.721863 241.939499,338.080994 242.064011,334.448608 
	C242.093597,333.585236 242.769516,332.743988 244.215393,332.053162 
	C244.782837,334.478333 245.350281,336.903473 246.220596,339.134033 
z"/>
<path fill="#568F09" opacity="1.000000" stroke="none" 
	d="
M362.074921,343.925018 
	C361.142120,342.112061 360.209351,340.299072 359.276581,338.486084 
	C361.233856,337.998322 363.182892,337.471741 365.154877,337.053406 
	C365.585297,336.962097 366.274902,337.104706 366.534943,337.406708 
	C367.055420,338.011139 367.754425,339.392548 367.700043,339.428589 
	C364.037048,341.858368 370.905670,345.884888 366.228058,348.329895 
	C363.159668,349.933746 360.537201,348.897095 358.446960,344.216034 
	C359.335205,344.216034 360.103424,344.216034 361.353027,344.609924 
	C362.731232,345.290771 363.628082,345.577698 364.524902,345.864624 
	C364.636902,345.453217 364.748901,345.041840 364.860901,344.630463 
	C363.932251,344.395325 363.003571,344.160156 362.074921,343.925018 
z"/>
<path fill="#568F09" opacity="1.000000" stroke="none" 
	d="
M343.074921,343.925018 
	C342.155396,342.093658 341.235901,340.262268 340.316376,338.430908 
	C342.303955,337.965607 344.289825,337.193054 346.279846,337.182159 
	C347.106262,337.177612 348.203430,338.685913 348.658661,339.732056 
	C348.875244,340.229706 347.877014,341.256073 348.011444,341.019928 
	C347.896912,343.537933 348.587921,346.254547 347.531982,347.629211 
	C345.648499,350.081238 342.847931,349.666809 340.760590,347.179504 
	C340.135406,346.434540 339.737274,345.498993 339.124817,344.312012 
	C339.014465,343.973236 338.987762,344.009277 338.971436,344.025299 
	C339.910553,344.093170 340.865997,344.145020 342.327911,344.600342 
	C343.731232,345.290771 344.628082,345.577698 345.524902,345.864594 
	C345.636902,345.453217 345.748901,345.041840 345.860901,344.630463 
	C344.932251,344.395325 344.003571,344.160187 343.074921,343.925018 
z"/>
<path fill="#568F09" opacity="1.000000" stroke="none" 
	d="
M221.056854,343.659302 
	C221.158661,339.946381 221.599747,337.157776 226.029266,336.913330 
	C229.960953,336.696381 232.046844,338.657959 232.797913,341.920776 
	C233.558411,345.224640 231.728119,347.749420 228.522217,348.662292 
	C224.596558,349.780090 222.400925,347.488434 221.056854,343.659302 
M225.400742,340.102417 
	C225.128738,341.728210 224.743347,343.352844 224.726517,344.981232 
	C224.724380,345.187531 227.062271,345.938293 227.601288,345.518677 
	C228.638687,344.711151 230.050613,342.691833 229.722137,342.166931 
	C228.985977,340.990479 227.278763,340.421722 225.400742,340.102417 
z"/>
<path fill="#568F09" opacity="1.000000" stroke="none" 
	d="
M268.739746,339.563660 
	C268.897766,342.567291 268.897766,345.153839 268.897766,347.740417 
	C268.271149,347.875946 267.644562,348.011475 267.017944,348.146973 
	C266.351318,345.132812 265.684692,342.118622 265.018066,339.104431 
	C264.330200,339.002136 263.642334,338.899872 262.954498,338.797607 
	C262.010742,341.742004 261.066986,344.686432 260.130554,347.608063 
	C257.584656,346.441345 257.439148,345.689514 258.553497,336.240479 
	C262.010315,337.242249 265.296051,338.194427 268.739746,339.563660 
z"/>
<path fill="#568F09" opacity="1.000000" stroke="none" 
	d="
M251.447403,261.730774 
	C249.076950,261.148102 246.431961,260.918793 245.302200,259.490723 
	C244.447906,258.410889 244.850220,255.076111 245.929886,254.064056 
	C247.128220,252.940750 249.873199,252.726974 251.690613,253.166946 
	C254.938766,253.953262 254.902100,257.872742 251.447403,261.730774 
z"/>
<path fill="#568F09" opacity="1.000000" stroke="none" 
	d="
M290.007324,345.945312 
	C288.081879,348.663300 286.349487,348.780212 285.105469,345.902069 
	C283.951263,343.231812 283.065125,340.445679 282.060944,337.710571 
	C282.509613,337.387085 282.958282,337.063568 283.406921,336.740051 
	C284.844543,338.778168 286.282166,340.816254 287.748444,342.894958 
	C288.776215,341.119263 290.062561,338.896759 291.348938,336.674286 
	C291.951385,336.993713 292.553833,337.313141 293.156250,337.632568 
	C292.144958,340.281250 291.133636,342.929901 290.007324,345.945312 
z"/>
<path fill="#93FE92" opacity="1.000000" stroke="none" 
	d="
M246.942657,179.694672 
	C246.188492,180.127060 245.434692,180.178543 244.302048,180.192825 
	C237.696991,176.586288 231.120819,179.629547 224.267395,179.079712 
	C223.652344,178.098068 223.501541,177.176758 223.312775,176.023605 
	C229.408859,176.023605 235.374161,175.757477 241.291290,176.174667 
	C243.239288,176.312027 245.062653,178.217056 246.942657,179.694672 
z"/>
<path fill="#568F09" opacity="1.000000" stroke="none" 
	d="
M352.437256,347.392090 
	C351.570557,344.130920 350.612579,341.220337 350.519745,338.282410 
	C350.475037,336.866943 352.060547,335.399963 353.565277,332.836365 
	C354.357147,335.620697 354.953033,337.715942 355.548920,339.811218 
	C353.959534,340.863434 353.935455,344.250946 358.536560,347.731415 
	C356.036102,347.731415 354.368866,347.731415 352.437256,347.392090 
z"/>
<path fill="#568F09" opacity="1.000000" stroke="none" 
	d="
M239.587250,339.696716 
	C238.500961,341.385162 237.624512,342.807922 237.041122,344.342102 
	C236.598465,345.506195 236.529022,346.812164 236.293518,348.054993 
	C235.767807,348.018982 235.242081,347.983002 234.716370,347.946991 
	C234.716370,344.564972 234.716370,341.182953 234.716370,337.674286 
	C239.623123,336.385925 240.251816,336.576569 239.587250,339.696716 
z"/>
<path fill="#568F09" opacity="1.000000" stroke="none" 
	d="
M179.002090,344.749878 
	C179.000504,342.009613 179.000504,339.711823 179.000504,337.331421 
	C181.462677,337.331421 183.497986,337.331421 185.108093,337.331421 
	C184.024246,340.504974 182.985443,343.677032 181.824829,346.803894 
	C181.651489,347.270874 180.906097,347.525513 180.425339,347.878387 
	C179.951447,346.983063 179.477570,346.087708 179.002090,344.749878 
z"/>
<path fill="#568F09" opacity="1.000000" stroke="none" 
	d="
M306.041626,338.654205 
	C308.217499,337.775330 310.363495,337.311371 312.740326,336.797516 
	C310.906067,340.795990 309.369080,344.146454 307.549164,348.113647 
	C304.457489,345.639069 306.718018,341.966736 306.041626,338.654205 
z"/>
<path fill="#568F09" opacity="1.000000" stroke="none" 
	d="
M320.003082,340.203674 
	C320.780121,334.414032 324.264801,337.890320 326.253387,337.360168 
	C324.738831,340.851318 323.294983,344.179504 321.851135,347.507690 
	C321.514282,347.686127 321.177429,347.864563 320.840576,348.042999 
	C320.560638,345.580322 320.280731,343.117645 320.003082,340.203674 
z"/>
<path fill="#97BA69" opacity="1.000000" stroke="none" 
	d="
M182.051544,215.386475 
	C182.389160,218.120865 182.887848,221.330276 182.949509,224.548065 
	C183.079697,231.341522 182.981293,238.139389 182.958359,245.393204 
	C182.626389,244.019592 182.063187,242.191101 182.042084,240.356369 
	C181.948181,232.193634 182.009445,224.029129 182.051544,215.386475 
z"/>
<path fill="#FFFFFF" opacity="1.000000" stroke="none" 
	d="
M204.380707,245.773895 
	C203.923019,236.187119 203.895706,226.487885 203.926788,216.312317 
	C204.323227,216.667099 204.953629,217.497925 204.954437,218.329376 
	C204.963242,227.440002 204.873810,236.550720 204.380707,245.773895 
z"/>
<path fill="#87AE50" opacity="1.000000" stroke="none" 
	d="
M263.126526,245.875671 
	C262.895721,245.839752 262.947968,245.379089 263.048645,245.170288 
	C263.377747,245.063965 263.551941,245.225037 263.738586,245.611664 
	C263.805237,245.778625 263.357361,245.911591 263.126526,245.875671 
z"/>
<path fill="#000000" opacity="1.000000" stroke="none" 
	d="
M314.654358,280.761230 
	C317.298553,275.801270 321.713440,274.632904 326.175262,275.295044 
	C331.117584,276.028534 335.218689,278.598541 335.245087,285.000000 
	C331.679291,285.000000 328.079895,285.000000 324.480469,285.000000 
	C320.838776,285.000000 317.197083,285.000000 313.007507,285.000000 
	C313.592285,283.401001 314.016998,282.239807 314.654358,280.761230 
z"/>
<path fill="#000000" opacity="1.000000" stroke="none" 
	d="
M278.090454,285.000000 
	C275.186493,285.000000 272.762848,285.000000 270.263855,285.000000 
	C271.151825,278.721008 275.290253,275.045197 280.923279,275.003784 
	C286.531586,274.962555 290.606537,278.457550 291.849304,285.000000 
	C287.346405,285.000000 282.958588,285.000000 278.090454,285.000000 
z"/>
<path fill="#000000" opacity="1.000000" stroke="none" 
	d="
M144.058060,278.008667 
	C148.051483,274.783722 152.242554,273.940491 156.319351,276.309479 
	C160.279312,278.610596 162.784790,282.153015 163.072693,287.161224 
	C163.412643,293.074921 161.991867,298.083832 156.925095,301.423492 
	C150.555023,305.622192 140.780151,300.779663 140.081802,293.002228 
	C139.609985,287.747406 139.275055,282.307098 144.058060,278.008667 
z"/>
<path fill="#000000" opacity="1.000000" stroke="none" 
	d="
M403.108795,293.000000 
	C400.519043,293.000000 398.403992,293.000000 395.331055,293.000000 
	C400.911530,284.967621 406.031891,277.597504 411.738647,269.383362 
	C411.738647,277.760529 411.738647,285.079010 411.738647,293.000000 
	C409.080963,293.000000 406.332214,293.000000 403.108795,293.000000 
z"/>
<path fill="#000000" opacity="1.000000" stroke="none" 
	d="
M361.934814,344.044708 
	C363.003571,344.160156 363.932251,344.395325 364.860901,344.630463 
	C364.748901,345.041840 364.636902,345.453217 364.524902,345.864624 
	C363.628082,345.577698 362.731232,345.290771 361.673035,344.702148 
	C361.511658,344.400421 361.794708,344.164398 361.934814,344.044708 
z"/>
<path fill="#000000" opacity="1.000000" stroke="none" 
	d="
M342.934814,344.044708 
	C344.003571,344.160187 344.932251,344.395325 345.860901,344.630463 
	C345.748901,345.041840 345.636902,345.453217 345.524902,345.864594 
	C344.628082,345.577698 343.731232,345.290771 342.673035,344.702148 
	C342.511658,344.400421 342.794708,344.164398 342.934814,344.044708 
z"/>
<path fill="#000000" opacity="1.000000" stroke="none" 
	d="
M225.683838,339.853973 
	C227.278763,340.421722 228.985977,340.990479 229.722137,342.166931 
	C230.050613,342.691833 228.638687,344.711151 227.601288,345.518677 
	C227.062271,345.938293 224.724380,345.187531 224.726517,344.981232 
	C224.743347,343.352844 225.128738,341.728210 225.683838,339.853973 
z"/>
</svg>